<svg version="1.1" xmlns="http://www.w3.org/2000/svg" style="display: block;" viewBox="0 0 2048 2048" width="24" height="24" preserveAspectRatio="none">
<path transform="translate(0,0)" fill="rgb(254,254,254)" d="M 0 0 L 2048 0 L 2048 2048 L 0 2048 L 0 0 z"/>
<path transform="translate(0,0)" fill="rgb(3,26,62)" d="M 526.028 37.4453 C 551.789 36.5738 580.447 37.1344 606.415 37.1323 L 747.02 37.1388 L 1173.29 37.142 L 1415.46 37.1368 C 1480.56 37.1381 1546.02 33.701 1610.82 45.8195 C 1813.36 83.7002 1968.07 267.337 1978.68 471.735 C 1980.04 497.945 1979.02 526.797 1979.01 553.403 L 1979 697.962 L 1978.99 1139.51 L 1979.02 1409.59 L 1979.01 1501.05 C 1978.99 1551.7 1980.06 1583.19 1968.75 1633.24 C 1949.26 1719.49 1908.41 1792.51 1848.63 1857.26 C 1764.42 1947.52 1647.78 2000.62 1524.41 2004.86 L 815.202 2004.88 L 627.211 2004.84 C 565.738 2004.91 505.464 2008.22 445.223 1995.22 C 361.833 1976.48 284.798 1936.25 221.776 1878.51 C 133.34 1797.67 75.0497 1683.49 69.2593 1562.95 C 68.049 1537.76 68.9023 1505.72 68.9137 1480.04 L 68.9249 1335.15 L 68.9206 889.657 L 68.8829 620.061 L 68.8725 530.236 C 68.8755 482.081 68.4055 445.697 78.9285 398.373 C 118.671 219.643 266.608 80.5784 445.5 46.0577 C 473.317 40.6899 497.624 38.6001 526.028 37.4453 z"/>
<path transform="translate(0,0)" fill="rgb(254,254,254)" d="M 744.232 737.5 C 746.689 737.258 748.938 737.213 751.356 737.086 C 854.799 731.641 965.561 759.855 1025.65 851.306 C 1031.16 859.691 1039.74 872.276 1039.26 882.714 C 1038.94 889.67 1026.47 900.099 1021.13 904.303 C 1004.71 917.649 987.786 931.5 971.325 944.575 C 943.412 966.746 934.316 946.119 916.068 926.82 C 885.814 894.815 848.712 878.752 805.739 872.367 C 743.59 863.131 640.42 881.109 630.089 957.478 C 619.084 1038.82 739.798 1055.7 796.758 1068.23 C 827.569 1075 859.248 1081.55 889.462 1091.1 C 941.279 1107.65 993.755 1132.13 1028.27 1175.79 C 1066.25 1223.83 1077.04 1283.49 1069.93 1343.2 C 1063.27 1403.28 1032.5 1458.08 984.685 1495.06 C 914.789 1550.02 810.979 1563.08 724.76 1552.56 C 671.246 1548.72 601.142 1523.85 556.369 1494.33 C 524.267 1473.27 496.53 1446.2 474.68 1414.63 C 468.691 1406.06 461.799 1395.73 459.665 1385.31 C 458.387 1381.13 461.283 1375.45 464.091 1372.22 C 477.615 1356.67 496.604 1344.48 512.312 1331.2 C 522.001 1323.61 534.296 1312.54 546.941 1311.22 C 561.679 1309.69 577.411 1335.77 586.09 1345.46 C 641.451 1407.32 725.486 1431.67 806.514 1425.03 C 844.704 1421.91 885.235 1411.28 910.825 1380.76 C 925.94 1362.76 933.204 1339.44 930.993 1316.03 C 923.737 1242.23 822.413 1220.74 763.301 1208.01 C 643.792 1181.89 499.695 1145.74 485.743 999.993 C 473.763 874.846 549.465 784.918 665.97 750.905 C 692.628 743.122 716.479 739.852 744.232 737.5 z"/>
<path transform="translate(0,0)" fill="rgb(41,204,184)" d="M 1115.19 742.179 C 1120.01 741.87 1126.09 741.976 1130.99 741.943 L 1229.67 741.904 C 1258.07 741.931 1285.34 741.189 1313.62 744.517 C 1393.38 753.972 1467.61 790.085 1524.28 847.003 C 1680.46 1001.53 1679.91 1287.16 1524.61 1441.93 C 1497.92 1468.57 1467.17 1490.79 1433.5 1507.78 C 1360.6 1544.39 1311.21 1545.92 1232.67 1545.94 L 1136.25 1545.91 L 1073.99 1545.95 C 1064.26 1545.97 1036.73 1548.39 1030.84 1541.54 C 1030.11 1539.37 1029.78 1536.42 1031.11 1534.64 C 1037.81 1525.72 1049.47 1514.87 1057.11 1506.6 C 1063.98 1499.17 1070.4 1491.34 1076.34 1483.15 C 1082.33 1474.88 1087.96 1466.37 1093.24 1457.63 C 1100.2 1445.91 1109.26 1425.59 1118.55 1416.99 C 1133.13 1406.38 1162.47 1410.29 1178.85 1409.74 C 1230.06 1407.85 1284.51 1415.79 1334.09 1400.65 C 1477.56 1356.85 1539.94 1192.69 1497.68 1056.13 C 1469.83 966.142 1397.01 894.824 1302.5 880.409 C 1281.18 877.157 1259.52 877.969 1238.11 877.978 L 1155.77 878.173 C 1135.26 878.249 1094.85 884.485 1088.51 855.38 C 1086.33 845.39 1086.76 833.226 1086.84 822.926 C 1086.98 806.005 1086.06 788.636 1087.51 771.772 C 1089.04 753.898 1098.91 745.334 1115.19 742.179 z"/>
<path transform="translate(0,0)" fill="rgb(41,204,184)" d="M 833.816 475.783 C 842.886 468.518 852.349 461.757 862.162 455.532 C 930.419 412.998 1012.68 399.043 1091.14 416.684 C 1148.92 429.306 1201.64 458.834 1242.59 501.51 C 1250.83 510.07 1259.62 519.097 1266.05 529.099 C 1268.39 532.749 1271.3 537.976 1270.39 542.501 C 1269.77 545.537 1267.25 547.774 1264.94 549.615 C 1256.86 556.055 1246.89 560.393 1238.01 565.623 C 1230.58 569.996 1223.36 575.007 1215.68 578.919 C 1211.65 580.97 1206.41 583.802 1201.81 582.462 C 1193.44 580.02 1186.02 567.735 1179.95 561.575 C 1175.77 557.339 1171.19 553.466 1166.63 549.643 C 1101.66 495.062 1011.42 480.486 933.697 516.438 C 911.144 526.871 889.935 540.728 872.207 558.218 C 864.798 565.528 857.597 575.475 848.79 580.936 C 845.107 583.221 841.92 582.751 837.994 581.257 C 828.95 577.813 780.458 550.618 777.571 543.246 C 776.527 540.58 777.007 537.318 778.348 534.847 C 788.05 516.967 816.603 488.519 833.816 475.783 z"/>
<path transform="translate(0,0)" fill="rgb(41,204,184)" d="M 1020.67 566.927 C 1052.5 564.978 1079.87 589.239 1081.76 621.075 C 1083.64 652.911 1059.32 680.23 1027.48 682.047 C 995.735 683.859 968.514 659.629 966.636 627.886 C 964.758 596.143 988.932 568.871 1020.67 566.927 z"/>
</svg>